PathFileType	4	(X/Y/Z)	Patient4_TMGait_0pt5_01_right_24.trc.trc
DataRate	CameraRate	NumFrames	NumMarkers	Units	OrigDataRate	OrigDataStartFrame	OrigNumFrames
75.268817204301	75.268817204301	7	33	mm	75.268817204301	124	       141
Frame#	Time	L.ASIS			Sacral			L.Shoulder			Chest			R.Shoulder			Neck			R.ASIS			R.Thigh.Superior			R.Thigh.Lateral			R.Thigh.Inferior			R.Patella			L.Thigh.Superior			L.Thigh.Lateral			L.Thigh.Inferior			L.Patella			L.Shank.Superior			L.Shank.Lateral			L.Shank.Inferior			R.Shank.Superior			R.Shank.Lateral			R.Shank.Inferior			R.Heel			R.Midfoot.Superior			R.Midfoot.Lateral			R.Toe			L.Heel			L.Midfoot.Lateral			L.Midfoot.Superior			L.Toe			L.Elbow			L.Wrist			R.Elbow			R.Wrist			
		X1	Y1	Z1	X2	Y2	Z2	X3	Y3	Z3	X4	Y4	Z4	X5	Y5	Z5	X6	Y6	Z6	X7	Y7	Z7	X8	Y8	Z8	X9	Y9	Z9	X10	Y10	Z10	X11	Y11	Z11	X12	Y12	Z12	X13	Y13	Z13	X14	Y14	Z14	X15	Y15	Z15	X16	Y16	Z16	X17	Y17	Z17	X18	Y18	Z18	X19	Y19	Z19	X20	Y20	Z20	X21	Y21	Z21	X22	Y22	Z22	X23	Y23	Z23	X24	Y24	Z24	X25	Y25	Z25	X26	Y26	Z26	X27	Y27	Z27	X28	Y28	Z28	X29	Y29	Z29	X30	Y30	Z30	X31	Y31	Z31	X32	Y32	Z32	X33	Y33	Z33	

124	33.084142857143	940.860698059030	945.516892632834	330.471384264727	715.243325222630	998.967593188829	466.870210185049	919.700516693146	1426.458315859742	309.602727347270	999.224501405580	1349.703763776915	480.489895807441	895.504517543970	1424.242471028254	644.155273030457	903.334351896724	1484.796653705045	460.391012456950	928.779983524606	931.020964794060	606.019704597352	997.776720456838	753.322392041688	584.493021173640	937.700302888039	633.671065200261	648.040678748180	1029.811038526449	594.155961419362	574.399702763413	1054.095068138564	512.119731750590	586.920296334322	939.369657453152	718.364328181924	361.643018772411	827.994198649029	626.874006713376	289.781585113892	879.188779835382	531.918780797178	360.152971983875	860.189959042570	462.422067946066	368.682552851007	821.529739766285	398.254641700429	355.804195725336	715.011472124311	305.016290960325	296.303251250870	733.517396703752	185.665191163176	367.588875941448	1041.981776047405	421.802209293455	595.704397162476	987.477068712091	306.855949728950	653.875692674978	1058.520102060089	222.660817665724	603.022935263046	964.632625852975	41.470928255194	568.172645297203	1125.142322102439	112.114667236465	615.352824333460	1045.243411933225	38.101253439556	644.897842559452	1247.916530218278	73.770440246649	647.308569649961	578.876191061773	43.042503062717	395.949264262622	656.252453965891	37.295701973230	319.578695930434	740.682210734505	95.613494004058	349.872104177666	868.188743390177	39.155719534018	324.655624418534	944.925467265367	1090.674863797407	157.084022556625	1192.769951474331	1031.306714297306	183.737577529589	741.069946623581	1112.796433879984	735.314554685628	703.829495052292	855.392895939232	754.387837739106	
125	33.097428571429	942.968997019714	945.039518266341	333.681961852415	716.828567306794	997.546348588041	469.925786518088	919.321356597848	1425.584564961654	313.117913809530	999.378750307420	1349.275139602045	483.985843938672	895.367505034055	1423.175449457785	647.815503167498	902.864458404343	1483.956265247573	463.995389950566	930.589630348287	929.815738387150	609.178603332783	1000.084903400650	751.802824610108	587.238719548669	938.386782792327	632.129478443436	649.272355748609	1030.948507684243	592.977109182618	576.206583530180	1053.627973426301	509.888396113316	587.982883324275	941.046815725973	717.384416271386	364.035259121747	829.337188925005	625.908107194947	292.436261493442	880.916230672306	530.583817889393	362.309627841719	861.973120742544	460.205577503379	370.324753017216	821.356745807143	396.776219531831	357.433760988145	712.944449348795	305.918018205569	297.421056964808	729.278564697962	185.816624457840	367.937117602881	1040.978347405841	419.241043301709	596.471005202974	985.032037427775	304.747347895069	654.103584797697	1054.722797293136	219.894602749554	602.698655994153	957.360886141145	41.484950184369	567.514700942811	1119.726594814224	108.688109531696	614.005403301251	1038.048746699481	37.040815489998	644.337093897983	1241.725120549305	67.705235538323	645.691928945824	572.382299468844	45.416922174888	395.563259802522	649.750255796218	38.451190668756	319.378873861424	734.836445309677	95.883803813938	349.617448014105	861.551276485467	38.852069486194	324.587043757018	944.729658576523	1088.971398179899	161.664122844463	1192.530939762201	1029.319370400472	189.466361926143	744.778183751120	1109.376910959197	738.473348919619	711.416803178079	851.263491706773	757.047573284322	
126	33.110714285714	944.943351239913	944.919875903626	336.952048381527	718.277347877993	996.409298666326	473.005100741833	919.053324050053	1424.995283023413	316.810394240885	999.613834207659	1349.019155861953	487.631298800516	895.381010503231	1422.299564933121	651.658416572071	902.574689287935	1483.367869062778	467.808805387216	932.357758989529	928.927061533060	612.367864689043	1002.500902536125	750.789489911972	589.857706331786	939.502522807025	631.158107047203	650.608411194701	1032.401458720799	592.279452011096	577.995592762324	1053.593980868581	508.092898542874	589.185996445149	943.217922359479	716.797068515472	366.499040492692	831.608946253186	624.899285362049	295.267316769210	884.050615903919	529.368139594574	364.630165238431	865.357009401259	457.885289270625	372.002485544609	822.429460272397	395.256854380011	359.193842500584	711.850590940299	307.238346776885	298.708347351569	725.700062934228	186.360999154827	368.373301277831	1040.262496286174	417.150259475649	597.365855535862	982.856872628753	303.172615392930	654.629964464606	1050.984195990886	217.557220115245	602.555799051935	949.936559467131	41.699657199884	567.091361673598	1114.112695555326	105.723551351653	612.840545392115	1030.724295609081	36.337167565192	644.047799619288	1235.383362796337	62.297241685709	644.275336435498	566.101480391742	48.977781744576	395.257068588615	643.328079343676	40.377198872217	319.241249837707	729.325129424792	96.422725320875	349.391864887446	854.780240952069	38.442246788633	324.580948397245	943.959787459048	1087.421174576896	166.488083584897	1191.521968216238	1026.314569169354	195.148097499153	749.213649225220	1105.812841753359	741.868667519868	720.562063859495	846.947056783490	759.899882856120	
127	33.124000000000	946.647746756120	945.159810767742	340.242899212774	719.552340066857	995.600242576912	476.101840161116	918.883987366547	1424.751278632822	320.650992264735	999.908435430168	1348.964250103876	491.384648681138	895.551871414115	1421.661132450076	655.642060020806	902.461206009272	1483.072081440968	471.799931579932	934.050346960905	928.407245191659	615.554525158577	1004.873565964124	750.263751803367	592.368284580335	940.880338543092	630.739639069078	652.095122829603	1033.958883608909	591.986126435165	579.797422393567	1053.790947175147	506.734212442082	590.547177664810	945.888904564742	716.658032660520	369.029550346977	834.911739221844	623.860414525981	298.247345126773	888.727534023136	528.325131104544	367.092682149772	870.464233585256	455.532071238237	373.695236038020	824.900024548033	393.746265897947	361.075621268033	711.890488660767	309.064700900841	300.194669101321	722.921586893662	187.416871179600	368.943479457767	1039.677640762689	415.547144086008	598.403628952801	980.875748108894	302.121904112961	655.466276448603	1047.314497828305	215.698847032337	602.623567466135	942.618715940361	42.022775090966	566.900987448280	1108.426574338002	103.332182421821	611.942220896527	1023.511385995078	35.947004044369	644.024463100185	1229.051192575555	57.813543943052	643.143921867031	560.156219099060	53.979387016735	395.111228452475	637.061494892574	43.305781635838	319.222996389081	724.245520477533	97.336534115768	349.254398123983	847.861967003492	37.914055294796	324.663697333084	942.642321690978	1086.112655394192	171.541954967454	1189.724341388070	1022.291142518206	200.740287338681	754.284988193236	1102.251261708461	745.476468628640	731.181381862618	842.645510126898	762.963137860678	
128	33.137285714286	947.962319508746	945.728363295580	343.504936939845	720.629173917132	995.135799555837	479.226803370235	918.774350923271	1424.886403018811	324.602841715001	1000.230095505608	1349.125336164648	495.194048890763	895.873794250405	1421.282074170808	659.717417900805	902.493092452123	1483.084857025280	475.928701584589	935.646944542412	928.276578533626	618.701630214380	1007.057968363577	750.151367889199	594.804649502168	942.300001584253	630.797942997591	653.749565471631	1035.384284698646	591.979320527099	581.637484301927	1053.972000657040	505.759709586665	592.051773696190	949.042527179292	717.005058687419	371.620880412170	839.304058111864	622.816428960682	301.333424956344	895.010012438478	527.515622145085	369.655075863467	877.333511939160	453.238692354051	375.377430464964	828.870480239807	392.308019945955	363.058408276390	713.194823004443	311.468494552796	301.899961008258	721.075626607941	189.093622551752	369.692405655549	1039.018170574735	414.391349290657	599.571946181999	978.933721071955	301.531922979686	656.575916873659	1043.644385004743	214.308660327879	602.896099161810	935.535373273306	42.377853881745	566.917857060555	1102.710581636792	101.543789365495	611.344365459949	1016.525026205706	35.805116043383	644.231766084157	1222.792461822134	54.359903925557	642.331878037167	554.702559321056	60.616008804127	395.212992792498	631.064908916758	47.446515460162	319.384954240661	719.709731775311	98.736672487536	349.270386118607	840.825406455329	37.266949946895	324.852950397248	940.809753201698	1085.116697886171	176.801041232539	1187.105321452545	1017.263119043768	206.199725503935	759.908066259441	1098.813600612262	749.276135234796	743.200440995038	838.547984708768	766.249883829439	
129	33.150571428571	948.809875836204	946.573471608811	346.681824999291	721.494235092096	995.005417167097	482.404703429878	918.658441640098	1425.401483677388	328.622913262186	1000.538158277460	1349.502197869281	498.999535494007	896.329561235383	1421.156739962047	663.832387970966	902.615729486976	1483.395512008207	480.148935830165	937.137450391996	928.521399785898	621.767821663568	1008.922341057798	750.326060115312	597.213596175780	943.507031730055	631.210705738370	655.561109134649	1036.437324854208	592.121641134355	583.529736082530	1053.877032643826	505.082100588044	593.655688033902	952.637364462593	717.856489864753	374.263635164970	844.786568715888	621.808057448311	304.469682489694	902.870719644553	527.008194455425	372.258280181213	885.909109993218	451.117864974003	377.022121859034	834.378026842840	391.018575692826	365.110831781036	715.850284893618	314.495223490770	303.831225690830	720.280045459218	191.476560076706	370.656877795093	1038.063233422253	413.603270724081	600.839987791178	976.835983466421	301.301591144236	657.887073446603	1039.861896891908	213.329386971977	603.342099516632	928.713110635040	42.708243479106	567.099826130529	1096.951786892076	100.320413079371	611.033934743669	1009.784077361717	35.837077299159	644.614238921623	1216.605278751429	51.904388627023	641.828509252731	549.930140309101	68.981582403830	395.647193910094	625.498002570859	52.952410192544	319.784629133529	715.846714501035	100.727628265309	349.502413404131	833.763221037653	36.517562896458	325.149650169930	938.496610710294	1084.474196301076	182.227570877350	1183.615655194504	1011.260273741974	211.482252210662	766.015611178239	1095.587029150813	753.253934710499	756.557634296632	834.820375967812	769.763347076418	
130	33.163857142857	949.168068633027	947.633337671374	349.718449765741	722.141080068749	995.176554157770	485.666857145082	918.448278740118	1426.264372929213	332.663900918409	1000.788169030657	1350.080570488237	502.735899257030	896.895693023797	1421.254302556786	667.935770428630	902.758777281960	1483.969550852484	484.411223714115	938.515248201030	929.097937690885	624.710045403150	1010.353685903698	750.629072600609	599.647356245906	944.251258471755	631.834393440176	657.499576162625	1036.902721603625	592.282780729611	585.471383029536	1053.269168051382	504.602125653516	595.296787387583	956.609031192652	719.213098847168	376.943009109833	851.293836280797	620.894386035829	307.592386853935	912.184442457710	526.879182388978	374.833200620373	896.042438248253	449.298847950607	378.604795593072	841.387474684716	389.965292199695	367.192858305484	719.890388530410	318.156585081891	305.980010154782	720.633782552380	194.611789347799	371.858195706968	1036.612105565567	413.085877045108	602.169531127611	974.388756793877	301.313886088642	659.311983271634	1035.845575632405	212.676967372163	603.917009824167	922.107878304928	42.978309036900	567.396828450648	1091.106516932652	99.576218909264	610.963534327573	1003.241253548742	35.970499895334	645.106816018097	1210.447283214525	50.316569576298	641.590831389929	546.059932899836	79.033706224157	396.485946640705	620.569054695200	59.885088792047	320.468219861591	712.805356421030	103.391956089457	349.998921401368	826.850933088841	35.705352064437	325.530416627252	935.734685476594	1084.188603805894	187.770870788902	1179.188094876451	1004.327199598618	216.542974844210	772.567459413704	1092.621724502289	757.403675515598	771.205582270475	831.599623503635	773.495645407588	
